<svg xmlns="http://www.w3.org/2000/svg" role="img" aria-labelledby="title desc" viewBox="0 0 1160 620">
<title id="title">Oritone colormap lightness profiles (light)</title>
<desc id="desc">Theme-aware vector chart of CIELAB L-star lightness profiles for Oritone scientific colormaps.</desc>
<style>
  .title { font-family: -apple-system, BlinkMacSystemFont, "Segoe UI", sans-serif; font-size: 28px; font-weight: 750; fill: #272c30; }
  .label { font-family: -apple-system, BlinkMacSystemFont, "Segoe UI", sans-serif; font-size: 13px; fill: #525a5e; }
  .tick { font-family: ui-monospace, SFMono-Regular, Menlo, Consolas, "Liberation Mono", monospace; font-size: 11px; fill: #687075; }
  .legend { font-family: -apple-system, BlinkMacSystemFont, "Segoe UI", sans-serif; font-size: 12px; fill: #272c30; }
</style>
<rect width="1160" height="620" fill="#f7f3eb"/>
<text class="title" x="580" y="38" text-anchor="middle">Oritone colormap lightness profiles</text>
<rect x="82" y="76" width="1044" height="472" fill="#fffdf8" stroke="#d3cabe"/>
<line x1="82.0" y1="76" x2="82.0" y2="548" stroke="#d3cabe" stroke-width="1"/>
<text class="tick" x="82.0" y="578" text-anchor="middle">0.0</text>
<line x1="290.8" y1="76" x2="290.8" y2="548" stroke="#d3cabe" stroke-width="1"/>
<text class="tick" x="290.8" y="578" text-anchor="middle">0.2</text>
<line x1="499.6" y1="76" x2="499.6" y2="548" stroke="#d3cabe" stroke-width="1"/>
<text class="tick" x="499.6" y="578" text-anchor="middle">0.4</text>
<line x1="708.4" y1="76" x2="708.4" y2="548" stroke="#d3cabe" stroke-width="1"/>
<text class="tick" x="708.4" y="578" text-anchor="middle">0.6</text>
<line x1="917.2" y1="76" x2="917.2" y2="548" stroke="#d3cabe" stroke-width="1"/>
<text class="tick" x="917.2" y="578" text-anchor="middle">0.8</text>
<line x1="1126.0" y1="76" x2="1126.0" y2="548" stroke="#d3cabe" stroke-width="1"/>
<text class="tick" x="1126.0" y="578" text-anchor="middle">1.0</text>
<line x1="82" y1="453.6" x2="1126" y2="453.6" stroke="#d3cabe" stroke-width="1"/>
<text class="tick" x="66" y="457.6" text-anchor="end">20</text>
<line x1="82" y1="359.2" x2="1126" y2="359.2" stroke="#d3cabe" stroke-width="1"/>
<text class="tick" x="66" y="363.2" text-anchor="end">40</text>
<line x1="82" y1="264.8" x2="1126" y2="264.8" stroke="#d3cabe" stroke-width="1"/>
<text class="tick" x="66" y="268.8" text-anchor="end">60</text>
<line x1="82" y1="170.4" x2="1126" y2="170.4" stroke="#d3cabe" stroke-width="1"/>
<text class="tick" x="66" y="174.4" text-anchor="end">80</text>
<line x1="82" y1="548" x2="1126" y2="548" stroke="#3b4246" stroke-width="1.4"/>
<line x1="82" y1="76" x2="82" y2="548" stroke="#3b4246" stroke-width="1.4"/>
<text class="label" x="580" y="604" text-anchor="middle">normalized scalar value</text>
<text class="label" transform="translate(28 312) rotate(-90)" text-anchor="middle">CIELAB L*</text>
<path d="M82.0,383.94 L86.08,381.98 L90.16,380.03 L94.23,378.07 L98.31,376.11 L102.39,374.16 L106.47,372.2 L110.55,370.25 L114.63,368.29 L118.7,366.34 L122.78,364.38 L126.86,362.42 L130.94,360.46 L135.02,358.51 L139.09,356.55 L143.17,354.59 L147.25,352.63 L151.33,350.67 L155.41,348.71 L159.48,346.75 L163.56,344.79 L167.64,342.83 L171.72,340.86 L175.8,338.9 L179.88,336.93 L183.95,334.97 L188.03,333.0 L192.11,331.04 L196.19,329.07 L200.27,327.1 L204.34,325.13 L208.42,323.16 L212.5,321.19 L216.58,319.22 L220.66,317.24 L224.73,315.27 L228.81,313.29 L232.89,311.25 L236.97,309.2 L241.05,307.15 L245.13,305.09 L249.2,302.88 L253.28,300.62 L257.36,298.36 L261.44,296.1 L265.52,293.85 L269.59,291.6 L273.67,289.33 L277.75,287.06 L281.83,284.8 L285.91,282.54 L289.98,280.28 L294.06,278.02 L298.14,275.76 L302.22,273.51 L306.3,271.25 L310.38,269.0 L314.45,266.75 L318.53,264.5 L322.61,262.26 L326.69,260.01 L330.77,257.76 L334.84,255.52 L338.92,253.27 L343.0,251.03 L347.08,248.78 L351.16,246.54 L355.23,244.3 L359.31,242.05 L363.39,239.81 L367.47,237.57 L371.55,235.32 L375.63,233.08 L379.7,230.84 L383.78,228.59 L387.86,226.35 L391.94,224.1 L396.02,221.85 L400.09,219.6 L404.17,217.35 L408.25,215.1 L412.33,212.85 L416.41,210.6 L420.48,208.34 L424.56,206.08 L428.64,203.83 L432.72,201.56 L436.8,199.3 L440.88,197.04 L444.95,194.77 L449.03,192.5 L453.11,190.22 L457.19,187.95 L461.27,185.68 L465.34,183.41 L469.42,181.13 L473.5,178.85 L477.58,176.57 L481.66,174.28 L485.73,171.99 L489.81,169.69 L493.89,167.38 L497.97,165.07 L502.05,162.75 L506.13,160.43 L510.2,158.1 L514.28,155.76 L518.36,153.41 L522.44,151.06 L526.52,148.69 L530.59,146.31 L534.67,143.93 L538.75,141.53 L542.83,139.11 L546.91,136.68 L550.98,134.27 L555.06,131.85 L559.14,129.43 L563.22,126.98 L567.3,124.53 L571.38,122.06 L575.45,119.56 L579.53,117.04 L583.61,114.49 L587.69,111.91 L591.77,109.27 L595.84,106.57 L599.92,103.74 L604.0,100.58 L608.08,103.78 L612.16,106.64 L616.23,109.39 L620.31,112.07 L624.39,114.69 L628.47,117.29 L632.55,119.85 L636.63,122.39 L640.7,124.91 L644.78,127.41 L648.86,129.9 L652.94,132.37 L657.02,134.84 L661.09,137.3 L665.17,139.74 L669.25,142.18 L673.33,144.62 L677.41,147.05 L681.48,149.47 L685.56,151.89 L689.64,154.31 L693.72,156.72 L697.8,159.13 L701.88,161.47 L705.95,163.78 L710.03,166.08 L714.11,168.37 L718.19,170.66 L722.27,172.93 L726.34,175.21 L730.42,177.48 L734.5,179.74 L738.58,181.99 L742.66,184.25 L746.73,186.49 L750.81,188.75 L754.89,191.1 L758.97,193.44 L763.05,195.77 L767.13,198.1 L771.2,200.42 L775.28,202.74 L779.36,205.05 L783.44,207.36 L787.52,209.66 L791.59,211.96 L795.67,214.25 L799.75,216.53 L803.83,218.81 L807.91,221.09 L811.98,223.36 L816.06,225.63 L820.14,227.89 L824.22,230.15 L828.3,232.4 L832.38,234.65 L836.45,236.9 L840.53,239.14 L844.61,241.38 L848.69,243.61 L852.77,245.84 L856.84,248.06 L860.92,250.28 L865.0,252.5 L869.08,254.71 L873.16,256.92 L877.23,259.13 L881.31,261.33 L885.39,263.53 L889.47,265.72 L893.55,267.91 L897.63,270.1 L901.7,272.28 L905.78,274.46 L909.86,276.64 L913.94,278.81 L918.02,280.98 L922.09,283.15 L926.17,285.32 L930.25,287.48 L934.33,289.63 L938.41,291.78 L942.48,293.85 L946.56,295.92 L950.64,297.99 L954.72,300.06 L958.8,302.12 L962.88,304.18 L966.95,306.25 L971.03,308.3 L975.11,310.36 L979.19,312.42 L983.27,314.47 L987.34,316.52 L991.42,318.57 L995.5,320.62 L999.58,322.66 L1003.66,324.71 L1007.73,326.75 L1011.81,328.79 L1015.89,330.83 L1019.97,332.87 L1024.05,334.91 L1028.13,336.94 L1032.2,338.97 L1036.28,341.0 L1040.36,343.03 L1044.44,345.06 L1048.52,347.09 L1052.59,349.12 L1056.67,351.14 L1060.75,353.16 L1064.83,355.18 L1068.91,357.2 L1072.98,359.22 L1077.06,361.24 L1081.14,363.25 L1085.22,365.27 L1089.3,367.28 L1093.38,369.29 L1097.45,371.3 L1101.53,373.31 L1105.61,375.32 L1109.69,377.32 L1113.77,379.33 L1117.84,381.33 L1121.92,383.34 L1126.0,385.34" fill="none" stroke="#56a6cf" stroke-width="3" stroke-linejoin="round" stroke-linecap="round"/>
<path d="M82.0,386.42 L86.08,384.35 L90.16,382.29 L94.23,380.22 L98.31,378.15 L102.39,376.08 L106.47,374.01 L110.55,371.94 L114.63,369.86 L118.7,367.79 L122.78,365.71 L126.86,363.63 L130.94,361.56 L135.02,359.47 L139.09,357.39 L143.17,355.31 L147.25,353.22 L151.33,351.14 L155.41,349.05 L159.48,346.96 L163.56,344.87 L167.64,342.78 L171.72,340.68 L175.8,338.59 L179.88,336.49 L183.95,334.39 L188.03,332.29 L192.11,330.19 L196.19,328.09 L200.27,325.99 L204.34,323.88 L208.42,321.77 L212.5,319.66 L216.58,317.55 L220.66,315.44 L224.73,313.32 L228.81,311.2 L232.89,309.09 L236.97,306.97 L241.05,304.84 L245.13,302.72 L249.2,300.59 L253.28,298.47 L257.36,296.34 L261.44,294.2 L265.52,292.07 L269.59,289.94 L273.67,287.83 L277.75,285.72 L281.83,283.61 L285.91,281.49 L289.98,279.38 L294.06,277.26 L298.14,275.14 L302.22,273.02 L306.3,270.89 L310.38,268.77 L314.45,266.64 L318.53,264.51 L322.61,262.37 L326.69,260.24 L330.77,258.1 L334.84,255.96 L338.92,253.81 L343.0,251.67 L347.08,249.52 L351.16,247.37 L355.23,245.21 L359.31,243.06 L363.39,240.9 L367.47,238.73 L371.55,236.57 L375.63,234.4 L379.7,232.23 L383.78,230.05 L387.86,227.88 L391.94,225.69 L396.02,223.51 L400.09,221.32 L404.17,219.13 L408.25,216.94 L412.33,214.74 L416.41,212.53 L420.48,210.33 L424.56,208.12 L428.64,205.9 L432.72,203.69 L436.8,201.46 L440.88,199.24 L444.95,197.01 L449.03,194.77 L453.11,192.53 L457.19,190.29 L461.27,188.1 L465.34,185.91 L469.42,183.73 L473.5,181.54 L477.58,179.35 L481.66,177.15 L485.73,174.95 L489.81,172.75 L493.89,170.54 L497.97,168.33 L502.05,166.11 L506.13,163.89 L510.2,161.66 L514.28,159.43 L518.36,157.19 L522.44,154.94 L526.52,152.68 L530.59,150.42 L534.67,148.15 L538.75,145.86 L542.83,143.57 L546.91,141.27 L550.98,138.95 L555.06,136.62 L559.14,134.28 L563.22,131.92 L567.3,129.54 L571.38,127.14 L575.45,124.72 L579.53,122.27 L583.61,119.78 L587.69,117.26 L591.77,114.68 L595.84,112.03 L599.92,109.26 L604.0,106.14 L608.08,109.53 L612.16,112.58 L616.23,115.51 L620.31,118.36 L624.39,121.15 L628.47,123.91 L632.55,126.63 L636.63,129.32 L640.7,131.99 L644.78,134.63 L648.86,137.26 L652.94,139.86 L657.02,142.45 L661.09,145.03 L665.17,147.59 L669.25,150.14 L673.33,152.67 L677.41,155.2 L681.48,157.72 L685.56,160.22 L689.64,162.72 L693.72,165.21 L697.8,167.69 L701.88,170.16 L705.95,172.62 L710.03,175.08 L714.11,177.53 L718.19,179.97 L722.27,182.41 L726.34,184.84 L730.42,187.26 L734.5,189.68 L738.58,192.1 L742.66,194.5 L746.73,196.91 L750.81,199.29 L754.89,201.55 L758.97,203.81 L763.05,206.07 L767.13,208.32 L771.2,210.56 L775.28,212.81 L779.36,215.04 L783.44,217.28 L787.52,219.51 L791.59,221.73 L795.67,223.96 L799.75,226.17 L803.83,228.39 L807.91,230.6 L811.98,232.81 L816.06,235.01 L820.14,237.21 L824.22,239.41 L828.3,241.61 L832.38,243.8 L836.45,245.99 L840.53,248.17 L844.61,250.35 L848.69,252.53 L852.77,254.71 L856.84,256.88 L860.92,259.05 L865.0,261.22 L869.08,263.39 L873.16,265.55 L877.23,267.71 L881.31,269.87 L885.39,272.03 L889.47,274.18 L893.55,276.33 L897.63,278.48 L901.7,280.63 L905.78,282.77 L909.86,284.91 L913.94,287.05 L918.02,289.19 L922.09,291.32 L926.17,293.45 L930.25,295.59 L934.33,297.71 L938.41,299.84 L942.48,301.9 L946.56,303.96 L950.64,306.02 L954.72,308.08 L958.8,310.13 L962.88,312.18 L966.95,314.23 L971.03,316.28 L975.11,318.33 L979.19,320.38 L983.27,322.42 L987.34,324.46 L991.42,326.5 L995.5,328.54 L999.58,330.58 L1003.66,332.62 L1007.73,334.65 L1011.81,336.68 L1015.89,338.71 L1019.97,340.74 L1024.05,342.77 L1028.13,344.8 L1032.2,346.82 L1036.28,348.85 L1040.36,350.87 L1044.44,352.89 L1048.52,354.91 L1052.59,356.93 L1056.67,358.94 L1060.75,360.96 L1064.83,362.97 L1068.91,364.98 L1072.98,366.99 L1077.06,369.0 L1081.14,371.01 L1085.22,373.02 L1089.3,375.02 L1093.38,377.03 L1097.45,379.03 L1101.53,381.03 L1105.61,383.03 L1109.69,385.03 L1113.77,387.03 L1117.84,389.03 L1121.92,391.03 L1126.0,393.02" fill="none" stroke="#ca86aa" stroke-width="3" stroke-linejoin="round" stroke-linecap="round"/>
<path d="M82.0,495.26 L86.09,493.81 L90.19,492.36 L94.28,490.91 L98.38,489.46 L102.47,488.02 L106.56,486.57 L110.66,485.13 L114.75,483.7 L118.85,482.26 L122.94,480.82 L127.04,479.39 L131.13,477.92 L135.22,476.42 L139.32,474.91 L143.41,473.4 L147.51,471.89 L151.6,470.37 L155.69,468.86 L159.79,467.35 L163.88,465.84 L167.98,464.33 L172.07,462.81 L176.16,461.3 L180.26,459.79 L184.35,458.27 L188.45,456.76 L192.54,455.25 L196.64,453.73 L200.73,452.22 L204.82,450.7 L208.92,449.19 L213.01,447.67 L217.11,446.16 L221.2,444.64 L225.29,443.13 L229.39,441.61 L233.48,440.1 L237.58,438.58 L241.67,437.07 L245.76,435.55 L249.86,434.04 L253.95,432.52 L258.05,431.01 L262.14,429.49 L266.24,427.98 L270.33,426.46 L274.42,424.94 L278.52,423.43 L282.61,421.91 L286.71,420.4 L290.8,418.88 L294.89,417.36 L298.99,415.85 L303.08,414.33 L307.18,412.82 L311.27,411.3 L315.36,409.78 L319.46,408.27 L323.55,406.75 L327.65,405.24 L331.74,403.72 L335.84,402.2 L339.93,400.69 L344.02,399.17 L348.12,397.66 L352.21,396.14 L356.31,394.62 L360.4,393.11 L364.49,391.59 L368.59,390.08 L372.68,388.56 L376.78,387.05 L380.87,385.53 L384.96,384.01 L389.06,382.5 L393.15,380.98 L397.25,379.47 L401.34,377.95 L405.44,376.44 L409.53,374.92 L413.62,373.4 L417.72,371.89 L421.81,370.37 L425.91,368.86 L430.0,367.34 L434.09,365.83 L438.19,364.31 L442.28,362.79 L446.38,361.28 L450.47,359.76 L454.56,358.25 L458.66,356.73 L462.75,355.22 L466.85,353.7 L470.94,352.18 L475.04,350.67 L479.13,349.15 L483.22,347.64 L487.32,346.12 L491.41,344.61 L495.51,343.09 L499.6,341.58 L503.69,340.06 L507.79,338.54 L511.88,337.03 L515.98,335.51 L520.07,334.0 L524.16,332.48 L528.26,330.97 L532.35,329.45 L536.45,327.93 L540.54,326.42 L544.64,324.9 L548.73,323.39 L552.82,321.87 L556.92,320.36 L561.01,318.84 L565.11,317.33 L569.2,315.81 L573.29,314.29 L577.39,312.78 L581.48,311.26 L585.58,309.75 L589.67,308.23 L593.76,306.72 L597.86,305.2 L601.95,303.69 L606.05,302.17 L610.14,300.65 L614.24,299.14 L618.33,297.62 L622.42,296.11 L626.52,294.57 L630.61,292.99 L634.71,291.42 L638.8,289.84 L642.89,288.26 L646.99,286.68 L651.08,285.11 L655.18,283.53 L659.27,281.95 L663.36,280.37 L667.46,278.79 L671.55,277.21 L675.65,275.62 L679.74,274.04 L683.84,272.46 L687.93,270.87 L692.02,269.29 L696.12,267.7 L700.21,266.12 L704.31,264.53 L708.4,262.94 L712.49,261.36 L716.59,259.77 L720.68,258.18 L724.78,256.59 L728.87,255.0 L732.96,253.41 L737.06,251.82 L741.15,250.22 L745.25,248.63 L749.34,247.04 L753.44,245.44 L757.53,243.85 L761.62,242.25 L765.72,240.66 L769.81,239.06 L773.91,237.46 L778.0,235.87 L782.09,234.27 L786.19,232.67 L790.28,231.07 L794.38,229.47 L798.47,227.87 L802.56,226.27 L806.66,224.66 L810.75,223.06 L814.85,221.46 L818.94,219.85 L823.04,218.25 L827.13,216.64 L831.22,215.04 L835.32,213.43 L839.41,211.82 L843.51,210.21 L847.6,208.6 L851.69,206.99 L855.79,205.38 L859.88,203.77 L863.98,202.16 L868.07,200.55 L872.16,198.94 L876.26,197.34 L880.35,195.8 L884.45,194.27 L888.54,192.73 L892.64,191.2 L896.73,189.66 L900.82,188.13 L904.92,186.6 L909.01,185.06 L913.11,183.53 L917.2,181.99 L921.29,180.46 L925.39,178.92 L929.48,177.39 L933.58,175.85 L937.67,174.32 L941.76,172.78 L945.86,171.25 L949.95,169.71 L954.05,168.18 L958.14,166.65 L962.24,165.11 L966.33,163.58 L970.42,162.04 L974.52,160.51 L978.61,158.97 L982.71,157.44 L986.8,155.87 L990.89,154.3 L994.99,152.73 L999.08,151.16 L1003.18,149.59 L1007.27,148.02 L1011.36,146.45 L1015.46,144.88 L1019.55,143.32 L1023.65,141.75 L1027.74,140.19 L1031.84,138.63 L1035.93,137.07 L1040.02,135.51 L1044.12,133.95 L1048.21,132.39 L1052.31,130.83 L1056.4,129.27 L1060.49,127.72 L1064.59,126.16 L1068.68,124.61 L1072.78,123.06 L1076.87,121.51 L1080.96,119.96 L1085.06,118.41 L1089.15,116.85 L1093.25,115.3 L1097.34,113.75 L1101.44,112.21 L1105.53,110.66 L1109.62,109.12 L1113.72,107.58 L1117.81,106.04 L1121.91,104.5 L1126.0,102.97" fill="none" stroke="#d89a43" stroke-width="3" stroke-linejoin="round" stroke-linecap="round"/>
<path d="M82.0,492.88 L86.09,491.38 L90.19,489.88 L94.28,488.38 L98.38,486.88 L102.47,485.38 L106.56,483.88 L110.66,482.38 L114.75,480.87 L118.85,479.37 L122.94,477.87 L127.04,476.37 L131.13,474.87 L135.22,473.37 L139.32,471.87 L143.41,470.37 L147.51,468.86 L151.6,467.36 L155.69,465.86 L159.79,464.36 L163.88,462.86 L167.98,461.36 L172.07,459.86 L176.16,458.36 L180.26,456.85 L184.35,455.35 L188.45,453.85 L192.54,452.35 L196.64,450.85 L200.73,449.35 L204.82,447.85 L208.92,446.35 L213.01,444.85 L217.11,443.34 L221.2,441.84 L225.29,440.34 L229.39,438.84 L233.48,437.34 L237.58,435.84 L241.67,434.34 L245.76,432.84 L249.86,431.34 L253.95,429.84 L258.05,428.33 L262.14,426.83 L266.24,425.33 L270.33,423.83 L274.42,422.33 L278.52,420.83 L282.61,419.33 L286.71,417.83 L290.8,416.33 L294.89,414.82 L298.99,413.32 L303.08,411.82 L307.18,410.32 L311.27,408.82 L315.36,407.32 L319.46,405.82 L323.55,404.32 L327.65,402.82 L331.74,401.32 L335.84,399.81 L339.93,398.31 L344.02,396.81 L348.12,395.31 L352.21,393.81 L356.31,392.31 L360.4,390.81 L364.49,389.31 L368.59,387.81 L372.68,386.31 L376.78,384.82 L380.87,383.35 L384.96,381.89 L389.06,380.42 L393.15,378.95 L397.25,377.48 L401.34,376.01 L405.44,374.55 L409.53,373.08 L413.62,371.61 L417.72,370.15 L421.81,368.68 L425.91,367.22 L430.0,365.75 L434.09,364.29 L438.19,362.82 L442.28,361.36 L446.38,359.89 L450.47,358.43 L454.56,356.96 L458.66,355.5 L462.75,354.04 L466.85,352.58 L470.94,351.11 L475.04,349.65 L479.13,348.19 L483.22,346.73 L487.32,345.27 L491.41,343.81 L495.51,342.35 L499.6,340.88 L503.69,339.42 L507.79,337.96 L511.88,336.5 L515.98,335.04 L520.07,333.59 L524.16,332.13 L528.26,330.67 L532.35,329.21 L536.45,327.75 L540.54,326.29 L544.64,324.83 L548.73,323.38 L552.82,321.92 L556.92,320.46 L561.01,319.0 L565.11,317.55 L569.2,316.09 L573.29,314.63 L577.39,313.18 L581.48,311.72 L585.58,310.26 L589.67,308.81 L593.76,307.35 L597.86,305.9 L601.95,304.44 L606.05,302.98 L610.14,301.53 L614.24,300.07 L618.33,298.62 L622.42,297.17 L626.52,295.71 L630.61,294.26 L634.71,292.8 L638.8,291.35 L642.89,289.86 L646.99,288.25 L651.08,286.65 L655.18,285.05 L659.27,283.41 L663.36,281.76 L667.46,280.1 L671.55,278.45 L675.65,276.81 L679.74,275.16 L683.84,273.51 L687.93,271.87 L692.02,270.23 L696.12,268.59 L700.21,266.95 L704.31,265.32 L708.4,263.68 L712.49,262.05 L716.59,260.41 L720.68,258.78 L724.78,257.15 L728.87,255.52 L732.96,253.9 L737.06,252.27 L741.15,250.64 L745.25,249.02 L749.34,247.38 L753.44,245.75 L757.53,244.12 L761.62,242.49 L765.72,240.86 L769.81,239.24 L773.91,237.61 L778.0,235.99 L782.09,234.37 L786.19,232.76 L790.28,231.14 L794.38,229.53 L798.47,227.91 L802.56,226.3 L806.66,224.69 L810.75,223.08 L814.85,221.48 L818.94,219.87 L823.04,218.27 L827.13,216.67 L831.22,215.07 L835.32,213.47 L839.41,211.87 L843.51,210.28 L847.6,208.68 L851.69,207.09 L855.79,205.5 L859.88,203.91 L863.98,202.32 L868.07,200.73 L872.16,199.15 L876.26,197.56 L880.35,195.98 L884.45,194.4 L888.54,192.82 L892.64,191.24 L896.73,189.67 L900.82,188.2 L904.92,186.73 L909.01,185.27 L913.11,183.8 L917.2,182.34 L921.29,180.88 L925.39,179.41 L929.48,177.95 L933.58,176.49 L937.67,175.03 L941.76,173.57 L945.86,172.11 L949.95,170.65 L954.05,169.19 L958.14,167.73 L962.24,166.27 L966.33,164.81 L970.42,163.36 L974.52,161.9 L978.61,160.44 L982.71,158.99 L986.8,157.53 L990.89,156.08 L994.99,154.62 L999.08,153.17 L1003.18,151.72 L1007.27,150.26 L1011.36,148.81 L1015.46,147.36 L1019.55,145.91 L1023.65,144.46 L1027.74,143.01 L1031.84,141.56 L1035.93,140.11 L1040.02,138.66 L1044.12,137.21 L1048.21,135.76 L1052.31,134.31 L1056.4,132.87 L1060.49,131.42 L1064.59,129.97 L1068.68,128.52 L1072.78,127.08 L1076.87,125.63 L1080.96,124.19 L1085.06,122.74 L1089.15,121.3 L1093.25,119.85 L1097.34,118.41 L1101.44,116.97 L1105.53,115.52 L1109.62,114.08 L1113.72,112.64 L1117.81,111.19 L1121.91,109.75 L1126.0,108.31" fill="none" stroke="#77c5e8" stroke-width="3" stroke-linejoin="round" stroke-linecap="round"/>
<path d="M82.0,491.48 L86.09,489.96 L90.19,488.44 L94.28,486.91 L98.38,485.39 L102.47,483.87 L106.56,482.34 L110.66,480.82 L114.75,479.3 L118.85,477.78 L122.94,476.26 L127.04,474.73 L131.13,473.21 L135.22,471.69 L139.32,470.17 L143.41,468.65 L147.51,467.13 L151.6,465.61 L155.69,464.09 L159.79,462.57 L163.88,461.05 L167.98,459.53 L172.07,458.01 L176.16,456.49 L180.26,454.97 L184.35,453.45 L188.45,451.93 L192.54,450.41 L196.64,448.89 L200.73,447.38 L204.82,445.86 L208.92,444.34 L213.01,442.82 L217.11,441.3 L221.2,439.78 L225.29,438.27 L229.39,436.75 L233.48,435.23 L237.58,433.71 L241.67,432.19 L245.76,430.68 L249.86,429.16 L253.95,427.64 L258.05,426.13 L262.14,424.61 L266.24,423.09 L270.33,421.57 L274.42,420.06 L278.52,418.54 L282.61,417.02 L286.71,415.51 L290.8,413.99 L294.89,412.47 L298.99,410.96 L303.08,409.44 L307.18,407.92 L311.27,406.41 L315.36,404.84 L319.46,403.27 L323.55,401.7 L327.65,400.13 L331.74,398.56 L335.84,396.99 L339.93,395.42 L344.02,393.85 L348.12,392.29 L352.21,390.72 L356.31,389.15 L360.4,387.58 L364.49,386.02 L368.59,384.45 L372.68,382.88 L376.78,381.32 L380.87,379.75 L384.96,378.19 L389.06,376.62 L393.15,375.06 L397.25,373.5 L401.34,371.93 L405.44,370.37 L409.53,368.8 L413.62,367.24 L417.72,365.68 L421.81,364.12 L425.91,362.55 L430.0,360.99 L434.09,359.43 L438.19,357.87 L442.28,356.31 L446.38,354.75 L450.47,353.19 L454.56,351.63 L458.66,350.07 L462.75,348.51 L466.85,346.95 L470.94,345.39 L475.04,343.83 L479.13,342.27 L483.22,340.71 L487.32,339.15 L491.41,337.59 L495.51,336.03 L499.6,334.47 L503.69,332.92 L507.79,331.36 L511.88,329.8 L515.98,328.24 L520.07,326.68 L524.16,325.13 L528.26,323.57 L532.35,322.01 L536.45,320.46 L540.54,318.9 L544.64,317.34 L548.73,315.79 L552.82,314.23 L556.92,312.67 L561.01,311.12 L565.11,309.56 L569.2,308.01 L573.29,306.45 L577.39,304.9 L581.48,303.34 L585.58,301.81 L589.67,300.3 L593.76,298.79 L597.86,297.28 L601.95,295.76 L606.05,294.25 L610.14,292.74 L614.24,291.23 L618.33,289.72 L622.42,288.21 L626.52,286.69 L630.61,285.18 L634.71,283.67 L638.8,282.16 L642.89,280.65 L646.99,279.14 L651.08,277.62 L655.18,276.11 L659.27,274.6 L663.36,273.09 L667.46,271.58 L671.55,270.07 L675.65,268.55 L679.74,267.04 L683.84,265.53 L687.93,264.02 L692.02,262.51 L696.12,260.99 L700.21,259.48 L704.31,257.97 L708.4,256.46 L712.49,254.95 L716.59,253.44 L720.68,251.92 L724.78,250.41 L728.87,248.9 L732.96,247.39 L737.06,245.88 L741.15,244.37 L745.25,242.85 L749.34,241.34 L753.44,239.83 L757.53,238.32 L761.62,236.81 L765.72,235.3 L769.81,233.78 L773.91,232.27 L778.0,230.76 L782.09,229.25 L786.19,227.74 L790.28,226.23 L794.38,224.71 L798.47,223.2 L802.56,221.69 L806.66,220.18 L810.75,218.67 L814.85,217.2 L818.94,215.79 L823.04,214.38 L827.13,212.97 L831.22,211.57 L835.32,210.17 L839.41,208.77 L843.51,207.38 L847.6,205.99 L851.69,204.6 L855.79,203.22 L859.88,201.84 L863.98,200.46 L868.07,199.09 L872.16,197.72 L876.26,196.35 L880.35,194.99 L884.45,193.62 L888.54,192.26 L892.64,190.91 L896.73,189.55 L900.82,188.2 L904.92,186.85 L909.01,185.51 L913.11,184.16 L917.2,182.82 L921.29,181.48 L925.39,180.14 L929.48,178.81 L933.58,177.48 L937.67,176.15 L941.76,174.82 L945.86,173.5 L949.95,172.17 L954.05,170.85 L958.14,169.5 L962.24,168.15 L966.33,166.8 L970.42,165.43 L974.52,164.07 L978.61,162.69 L982.71,161.31 L986.8,159.93 L990.89,158.54 L994.99,157.14 L999.08,155.75 L1003.18,154.29 L1007.27,152.79 L1011.36,151.28 L1015.46,149.78 L1019.55,148.28 L1023.65,146.78 L1027.74,145.27 L1031.84,143.71 L1035.93,142.16 L1040.02,140.61 L1044.12,139.05 L1048.21,137.51 L1052.31,135.96 L1056.4,134.42 L1060.49,132.88 L1064.59,131.34 L1068.68,129.8 L1072.78,128.26 L1076.87,126.73 L1080.96,125.2 L1085.06,123.66 L1089.15,122.13 L1093.25,120.6 L1097.34,119.08 L1101.44,117.56 L1105.53,116.04 L1109.62,114.53 L1113.72,113.02 L1117.81,111.51 L1121.91,110.0 L1126.0,108.5" fill="none" stroke="#43b08a" stroke-width="3" stroke-linejoin="round" stroke-linecap="round"/>
<path d="M82.0,493.11 L86.09,491.67 L90.19,490.23 L94.28,488.79 L98.38,487.35 L102.47,485.91 L106.56,484.47 L110.66,483.03 L114.75,481.59 L118.85,480.15 L122.94,478.71 L127.04,477.27 L131.13,475.83 L135.22,474.39 L139.32,472.95 L143.41,471.51 L147.51,470.07 L151.6,468.64 L155.69,467.2 L159.79,465.76 L163.88,464.32 L167.98,462.88 L172.07,461.44 L176.16,460.0 L180.26,458.56 L184.35,457.12 L188.45,455.68 L192.54,454.24 L196.64,452.8 L200.73,451.37 L204.82,449.93 L208.92,448.49 L213.01,447.05 L217.11,445.61 L221.2,444.17 L225.29,442.73 L229.39,441.29 L233.48,439.85 L237.58,438.41 L241.67,436.98 L245.76,435.54 L249.86,434.1 L253.95,432.66 L258.05,431.22 L262.14,429.78 L266.24,428.34 L270.33,426.9 L274.42,425.47 L278.52,424.03 L282.61,422.59 L286.71,421.15 L290.8,419.71 L294.89,418.27 L298.99,416.83 L303.08,415.39 L307.18,413.96 L311.27,412.52 L315.36,410.95 L319.46,409.38 L323.55,407.81 L327.65,406.24 L331.74,404.68 L335.84,403.12 L339.93,401.56 L344.02,400.01 L348.12,398.46 L352.21,396.92 L356.31,395.38 L360.4,393.84 L364.49,392.3 L368.59,390.77 L372.68,389.24 L376.78,387.72 L380.87,386.2 L384.96,384.68 L389.06,383.16 L393.15,381.65 L397.25,380.14 L401.34,378.63 L405.44,377.13 L409.53,375.63 L413.62,374.13 L417.72,372.64 L421.81,371.14 L425.91,369.66 L430.0,368.17 L434.09,366.69 L438.19,365.2 L442.28,363.73 L446.38,362.25 L450.47,360.78 L454.56,359.31 L458.66,357.84 L462.75,356.37 L466.85,354.91 L470.94,353.45 L475.04,351.99 L479.13,350.53 L483.22,349.08 L487.32,347.63 L491.41,346.18 L495.51,344.73 L499.6,343.29 L503.69,341.85 L507.79,340.41 L511.88,338.97 L515.98,337.53 L520.07,336.1 L524.16,334.53 L528.26,332.77 L532.35,331.01 L536.45,329.22 L540.54,327.44 L544.64,325.67 L548.73,323.89 L552.82,322.12 L556.92,320.36 L561.01,318.6 L565.11,316.84 L569.2,315.07 L573.29,313.27 L577.39,311.48 L581.48,309.7 L585.58,307.93 L589.67,306.16 L593.76,304.41 L597.86,302.66 L601.95,300.91 L606.05,299.18 L610.14,297.45 L614.24,295.73 L618.33,294.01 L622.42,292.3 L626.52,290.6 L630.61,288.9 L634.71,287.21 L638.8,285.52 L642.89,283.84 L646.99,282.16 L651.08,280.49 L655.18,278.83 L659.27,277.17 L663.36,275.51 L667.46,273.86 L671.55,272.21 L675.65,270.57 L679.74,268.94 L683.84,267.3 L687.93,265.67 L692.02,264.05 L696.12,262.43 L700.21,260.81 L704.31,259.2 L708.4,257.59 L712.49,255.99 L716.59,254.39 L720.68,252.79 L724.78,251.2 L728.87,249.61 L732.96,248.02 L737.06,246.43 L741.15,244.85 L745.25,243.28 L749.34,241.7 L753.44,240.28 L757.53,238.9 L761.62,237.52 L765.72,236.14 L769.81,234.77 L773.91,233.4 L778.0,232.04 L782.09,230.68 L786.19,229.33 L790.28,227.97 L794.38,226.62 L798.47,225.28 L802.56,223.94 L806.66,222.6 L810.75,221.26 L814.85,219.93 L818.94,218.6 L823.04,217.27 L827.13,215.95 L831.22,214.63 L835.32,213.31 L839.41,211.99 L843.51,210.68 L847.6,209.37 L851.69,208.06 L855.79,206.76 L859.88,205.46 L863.98,204.16 L868.07,202.86 L872.16,201.57 L876.26,200.28 L880.35,198.99 L884.45,197.67 L888.54,196.32 L892.64,194.97 L896.73,193.62 L900.82,192.25 L904.92,190.88 L909.01,189.51 L913.11,188.12 L917.2,186.74 L921.29,185.35 L925.39,183.96 L929.48,182.56 L933.58,181.16 L937.67,179.75 L941.76,178.34 L945.86,176.93 L949.95,175.52 L954.05,174.1 L958.14,172.68 L962.24,171.18 L966.33,169.65 L970.42,168.12 L974.52,166.59 L978.61,165.04 L982.71,163.44 L986.8,161.84 L990.89,160.25 L994.99,158.66 L999.08,157.07 L1003.18,155.48 L1007.27,153.89 L1011.36,152.3 L1015.46,150.72 L1019.55,149.14 L1023.65,147.55 L1027.74,145.97 L1031.84,144.39 L1035.93,142.81 L1040.02,141.24 L1044.12,139.66 L1048.21,138.08 L1052.31,136.51 L1056.4,134.94 L1060.49,133.37 L1064.59,131.8 L1068.68,130.23 L1072.78,128.66 L1076.87,127.1 L1080.96,125.54 L1085.06,123.97 L1089.15,122.41 L1093.25,120.85 L1097.34,119.29 L1101.44,117.74 L1105.53,116.18 L1109.62,114.63 L1113.72,113.08 L1117.81,111.53 L1121.91,109.98 L1126.0,108.43" fill="none" stroke="#dcc566" stroke-width="3" stroke-linejoin="round" stroke-linecap="round"/>
<rect x="88" y="78" width="186" height="154" rx="8" fill="#fffdf8" stroke="#d3cabe"/>
<line x1="98" y1="94" x2="128" y2="94" stroke="#56a6cf" stroke-width="3" stroke-linecap="round"/>
<text class="legend" x="140" y="98">Oritone Delta</text>
<line x1="98" y1="117" x2="128" y2="117" stroke="#ca86aa" stroke-width="3" stroke-linecap="round"/>
<text class="legend" x="140" y="121">Oritone Balance</text>
<line x1="98" y1="140" x2="128" y2="140" stroke="#d89a43" stroke-width="3" stroke-linecap="round"/>
<text class="legend" x="140" y="144">Oritone Ember</text>
<line x1="98" y1="163" x2="128" y2="163" stroke="#77c5e8" stroke-width="3" stroke-linecap="round"/>
<text class="legend" x="140" y="167">Oritone Marine</text>
<line x1="98" y1="186" x2="128" y2="186" stroke="#43b08a" stroke-width="3" stroke-linecap="round"/>
<text class="legend" x="140" y="190">Oritone Canopy</text>
<line x1="98" y1="209" x2="128" y2="209" stroke="#dcc566" stroke-width="3" stroke-linecap="round"/>
<text class="legend" x="140" y="213">Oritone Fusion</text>
</svg>
